<mxfile host="app.diagrams.net" agent="Mozilla/5.0 (Windows NT 10.0; Win64; x64) AppleWebKit/537.36 (KHTML, like Gecko) Chrome/135.0.0.0 Safari/537.36 Edg/135.0.0.0" version="26.2.13">
  <diagram name="PÃ¡gina-1" id="TuHkvWfQDPc7jEAX6ePf">
    <mxGraphModel dx="950" dy="1566" grid="1" gridSize="10" guides="1" tooltips="1" connect="1" arrows="1" fold="1" page="1" pageScale="1" pageWidth="827" pageHeight="1169" math="0" shadow="0">
      <root>
        <mxCell id="0" />
        <mxCell id="1" parent="0" />
        <mxCell id="ggWBwTTyfrBuulgxLvgR-1" value="aplicacion&amp;nbsp; pagos PSE" style="rounded=0;whiteSpace=wrap;html=1;" vertex="1" parent="1">
          <mxGeometry x="80" y="190" width="200" height="140" as="geometry" />
        </mxCell>
        <mxCell id="ggWBwTTyfrBuulgxLvgR-4" style="edgeStyle=orthogonalEdgeStyle;rounded=0;orthogonalLoop=1;jettySize=auto;html=1;exitX=0.25;exitY=0;exitDx=0;exitDy=0;entryX=1;entryY=0;entryDx=0;entryDy=0;" edge="1" parent="1" source="ggWBwTTyfrBuulgxLvgR-6" target="ggWBwTTyfrBuulgxLvgR-3">
          <mxGeometry relative="1" as="geometry" />
        </mxCell>
        <mxCell id="ggWBwTTyfrBuulgxLvgR-2" value="backend Victus" style="rounded=0;whiteSpace=wrap;html=1;" vertex="1" parent="1">
          <mxGeometry x="600" y="210" width="200" height="140" as="geometry" />
        </mxCell>
        <mxCell id="ggWBwTTyfrBuulgxLvgR-3" value="Api" style="ellipse;whiteSpace=wrap;html=1;" vertex="1" parent="1">
          <mxGeometry x="310" y="70" width="120" height="80" as="geometry" />
        </mxCell>
        <mxCell id="ggWBwTTyfrBuulgxLvgR-5" value="Controlador" style="rounded=1;whiteSpace=wrap;html=1;" vertex="1" parent="1">
          <mxGeometry x="230" y="140" width="120" height="60" as="geometry" />
        </mxCell>
        <mxCell id="ggWBwTTyfrBuulgxLvgR-7" value="" style="edgeStyle=orthogonalEdgeStyle;rounded=0;orthogonalLoop=1;jettySize=auto;html=1;exitX=0.25;exitY=0;exitDx=0;exitDy=0;entryX=1;entryY=0;entryDx=0;entryDy=0;" edge="1" parent="1" source="ggWBwTTyfrBuulgxLvgR-2" target="ggWBwTTyfrBuulgxLvgR-6">
          <mxGeometry relative="1" as="geometry">
            <mxPoint x="650" y="210" as="sourcePoint" />
            <mxPoint x="412" y="82" as="targetPoint" />
          </mxGeometry>
        </mxCell>
        <mxCell id="ggWBwTTyfrBuulgxLvgR-6" value="fetch" style="rhombus;whiteSpace=wrap;html=1;" vertex="1" parent="1">
          <mxGeometry x="470" y="140" width="100" height="100" as="geometry" />
        </mxCell>
        <mxCell id="ggWBwTTyfrBuulgxLvgR-8" value="http" style="text;html=1;align=center;verticalAlign=middle;whiteSpace=wrap;rounded=0;" vertex="1" parent="1">
          <mxGeometry x="340" y="30" width="60" height="30" as="geometry" />
        </mxCell>
        <mxCell id="ggWBwTTyfrBuulgxLvgR-9" value="(http)" style="text;html=1;align=center;verticalAlign=middle;whiteSpace=wrap;rounded=0;" vertex="1" parent="1">
          <mxGeometry x="510" y="165" width="60" height="30" as="geometry" />
        </mxCell>
        <mxCell id="ggWBwTTyfrBuulgxLvgR-10" value="fronend victus" style="rounded=0;whiteSpace=wrap;html=1;" vertex="1" parent="1">
          <mxGeometry x="580" y="-50" width="160" height="110" as="geometry" />
        </mxCell>
        <mxCell id="ggWBwTTyfrBuulgxLvgR-11" value="Controlador" style="rounded=1;whiteSpace=wrap;html=1;" vertex="1" parent="1">
          <mxGeometry x="707" y="180" width="120" height="60" as="geometry" />
        </mxCell>
        <mxCell id="ggWBwTTyfrBuulgxLvgR-12" value="Api" style="ellipse;whiteSpace=wrap;html=1;" vertex="1" parent="1">
          <mxGeometry x="720" y="130" width="120" height="80" as="geometry" />
        </mxCell>
        <mxCell id="ggWBwTTyfrBuulgxLvgR-13" style="edgeStyle=orthogonalEdgeStyle;rounded=0;orthogonalLoop=1;jettySize=auto;html=1;entryX=0.606;entryY=0.049;entryDx=0;entryDy=0;entryPerimeter=0;" edge="1" parent="1" source="ggWBwTTyfrBuulgxLvgR-10" target="ggWBwTTyfrBuulgxLvgR-12">
          <mxGeometry relative="1" as="geometry" />
        </mxCell>
      </root>
    </mxGraphModel>
  </diagram>
</mxfile>
